<?xml version="1.0" standalone="no"?>
<!DOCTYPE svg PUBLIC "-//W3C//DTD SVG 20010904//EN"
 "http://www.w3.org/TR/2001/REC-SVG-20010904/DTD/svg10.dtd">
<svg version="1.0" xmlns="http://www.w3.org/2000/svg"
 width="512.000000pt" height="512.000000pt" viewBox="0 0 512.000000 512.000000"
 preserveAspectRatio="xMidYMid meet">
<metadata>
Created by potrace 1.14, written by Peter Selinger 2001-2017
</metadata>
<g transform="translate(0.000000,512.000000) scale(0.100000,-0.100000)"
fill="#000000" stroke="none">
<path d="M610 4681 c-101 -31 -166 -110 -177 -215 -7 -67 13 -414 32 -563 31
-237 74 -415 148 -601 l41 -105 32 95 c147 440 491 835 932 1071 l84 44 -99
51 c-235 120 -505 192 -833 221 -129 12 -126 12 -160 2z"/>
<path d="M4195 4659 c-160 -23 -349 -69 -475 -116 -92 -35 -290 -128 -290
-138 0 -3 23 -17 52 -31 306 -155 607 -434 788 -729 61 -98 126 -239 164 -353
l33 -97 22 50 c70 157 139 418 166 630 32 254 45 575 25 646 -13 48 -75 118
-124 140 -54 24 -186 24 -361 -2z"/>
<path d="M1665 3317 c-151 -58 -218 -224 -146 -364 39 -78 145 -143 231 -143
102 0 212 80 245 179 21 65 16 140 -14 199 -26 51 -99 115 -149 130 -49 15
-127 14 -167 -1z"/>
<path d="M3282 3317 c-45 -14 -118 -81 -143 -129 -30 -59 -35 -134 -14 -199
33 -99 143 -179 245 -179 50 0 126 30 168 66 56 47 83 104 90 181 4 56 1 70
-27 128 -34 68 -81 110 -150 133 -41 14 -124 14 -169 -1z"/>
<path d="M2401 2972 c-144 -73 -125 -277 30 -324 l41 -12 -4 -86 c-3 -77 -6
-91 -31 -123 -100 -131 -320 -79 -341 80 -8 62 -41 97 -91 97 -55 0 -85 -35
-85 -100 0 -123 79 -236 205 -296 63 -29 79 -33 155 -32 101 1 175 25 238 80
l42 36 42 -36 c64 -55 137 -80 238 -80 76 0 93 4 155 33 126 58 205 172 205
295 0 65 -30 100 -85 100 -50 0 -80 -33 -94 -102 -13 -66 -44 -105 -105 -133
-69 -31 -149 -20 -207 28 -44 37 -59 80 -59 166 l0 74 39 11 c99 30 155 137
120 229 -14 38 -57 83 -96 99 -50 22 -268 19 -312 -4z"/>
<path d="M551 2744 c-40 -33 -43 -89 -8 -122 20 -19 148 -72 347 -142 73 -26
107 -23 140 12 28 30 27 88 -3 116 -22 21 -393 162 -427 162 -10 0 -32 -12
-49 -26z"/>
<path d="M4370 2720 c-272 -100 -271 -99 -286 -136 -25 -59 16 -124 78 -124
13 0 109 32 213 70 202 74 235 95 235 150 0 37 -37 79 -75 85 -21 3 -73 -11
-165 -45z"/>
<path d="M895 2115 c-196 -87 -224 -107 -225 -158 0 -36 49 -87 83 -87 27 0
98 28 290 115 102 46 131 64 143 87 29 56 -13 128 -75 128 -14 0 -111 -38
-216 -85z"/>
<path d="M3959 2171 c-52 -52 -33 -117 45 -151 251 -110 350 -150 371 -150 33
0 74 38 81 76 11 55 -29 84 -233 174 -101 44 -194 80 -209 80 -15 0 -37 -12
-55 -29z"/>
<path d="M1315 1771 c-29 -18 -159 -148 -258 -258 -58 -64 -62 -100 -18 -144
49 -48 69 -41 189 70 145 133 220 213 227 244 4 15 0 37 -9 56 -28 53 -78 66
-131 32z"/>
<path d="M3699 1761 c-20 -21 -29 -39 -29 -62 0 -29 18 -51 151 -185 84 -84
165 -158 180 -164 60 -25 127 29 115 92 -5 27 -39 67 -164 191 -139 138 -162
157 -191 157 -23 0 -41 -9 -62 -29z"/>
<path d="M1246 1399 c-10 -50 -7 -163 5 -221 52 -244 283 -450 630 -563 116
-38 329 -84 385 -85 17 0 43 -9 57 -20 14 -11 52 -33 84 -48 50 -23 71 -27
153 -27 83 0 102 3 155 28 33 15 67 35 77 44 10 9 58 21 115 30 199 29 365 79
528 158 242 119 396 293 435 492 12 58 10 226 -2 238 -2 3 -43 -20 -89 -51
-215 -145 -545 -270 -831 -315 l-78 -12 -44 41 c-92 85 -217 124 -328 102 -78
-15 -147 -50 -204 -102 l-44 -41 -78 12 c-286 45 -616 170 -831 314 -46 32
-85 57 -86 57 -2 0 -5 -14 -9 -31z"/>
</g>
</svg>
